<?xml version="1.0" encoding="iso-8859-1"?>
<!-- Generator: Adobe Illustrator 19.0.0, SVG Export Plug-In . SVG Version: 6.00 Build 0)  -->
<svg version="1.1" id="Layer_1" xmlns="http://www.w3.org/2000/svg" xmlns:xlink="http://www.w3.org/1999/xlink" x="0px" y="0px"
	 viewBox="0 0 455 455" style="enable-background:new 0 0 455 455;" xml:space="preserve">
<g>
	<path d="M345,182.5h-60v-125C285,25.744,259.256,0,227.5,0S170,25.744,170,57.5v125h-60c-22,0-40,18-40,40v35h315v-35
		C385,200.5,367,182.5,345,182.5z M227.5,72.5c-8.284,0-15-6.716-15-15c0-8.284,6.716-15,15-15s15,6.716,15,15
		C242.5,65.784,235.784,72.5,227.5,72.5z"/>
	<polygon points="70,455 133.75,455 133.75,340 163.75,340 163.75,455 212.5,455 212.5,340 242.5,340 242.5,455 291.25,455 
		291.25,340 321.25,340 321.25,455 385,455 385,287.5 70,287.5 	"/>
</g>
<g>
</g>
<g>
</g>
<g>
</g>
<g>
</g>
<g>
</g>
<g>
</g>
<g>
</g>
<g>
</g>
<g>
</g>
<g>
</g>
<g>
</g>
<g>
</g>
<g>
</g>
<g>
</g>
<g>
</g>
</svg>
