<?xml version="1.0" encoding="iso-8859-1"?>
<!-- Generator: Adobe Illustrator 19.1.0, SVG Export Plug-In . SVG Version: 6.00 Build 0)  -->
<svg version="1.1" id="Capa_1" xmlns="http://www.w3.org/2000/svg" xmlns:xlink="http://www.w3.org/1999/xlink" x="0px" y="0px"
	 viewBox="0 0 471.965 471.965" style="enable-background:new 0 0 471.965 471.965;" xml:space="preserve">
<g>
	<path d="M10.252,412.216C3.642,418.826,0,427.616,0,436.965s3.641,18.138,10.252,24.749c6.61,6.611,15.399,10.251,24.748,10.251
		c9.35,0,18.139-3.641,24.749-10.251c9.674-9.673,15.611-35.688,18.29-50.334l3.907-21.361l-21.361,3.907
		C45.939,396.604,19.925,402.543,10.252,412.216z"/>
	<path d="M103.16,312.236c-15.621,15.621-15.621,40.948,0,56.568c15.621,15.621,40.948,15.621,56.568,0l144.957-144.957
		l-56.569-56.569L103.16,312.236z"/>
	<path d="M460.249,11.716c-15.621-15.621-40.948-15.621-56.569,0l-56.569,56.569l56.569,56.568l56.569-56.568
		C475.87,52.663,475.87,27.337,460.249,11.716z"/>
	<path d="M311.756,75.355c-15.556-15.556-41.012-15.556-56.569,0l-28.284,28.284L368.324,245.06l28.284-28.284
		c15.556-15.556,15.556-41.012,0-56.569L311.756,75.355z"/>
</g>
<g>
</g>
<g>
</g>
<g>
</g>
<g>
</g>
<g>
</g>
<g>
</g>
<g>
</g>
<g>
</g>
<g>
</g>
<g>
</g>
<g>
</g>
<g>
</g>
<g>
</g>
<g>
</g>
<g>
</g>
</svg>
