<?xml version="1.0" encoding="iso-8859-1"?>
<!-- Generator: Adobe Illustrator 19.1.0, SVG Export Plug-In . SVG Version: 6.00 Build 0)  -->
<svg version="1.1" id="Capa_1" xmlns="http://www.w3.org/2000/svg" xmlns:xlink="http://www.w3.org/1999/xlink" x="0px" y="0px"
	 viewBox="0 0 455.702 455.702" style="enable-background:new 0 0 455.702 455.702;" xml:space="preserve">
<g>
	<path d="M228.387,170.746L399.133,0l56.568,56.568L284.955,227.314L228.387,170.746z"/>
	<path d="M168.285,343.988l-56.568-56.568l95.458-95.458l56.568,56.568L168.285,343.988z"/>
	<path d="M65.754,262.67l-35.355-35.355l21.213-21.213l35.355,35.355L65.754,262.67z"/>
	<path d="M228.391,425.307l-35.355-35.355l21.213-21.213l35.355,35.355L228.391,425.307z"/>
	<rect x="0.001" y="300.702" width="50" height="30"/>
	<rect x="125.001" y="405.702" width="30" height="50"/>
	<path d="M51.607,425.303L30.394,404.09l35.355-35.355l21.213,21.213L51.607,425.303z"/>
</g>
<g>
</g>
<g>
</g>
<g>
</g>
<g>
</g>
<g>
</g>
<g>
</g>
<g>
</g>
<g>
</g>
<g>
</g>
<g>
</g>
<g>
</g>
<g>
</g>
<g>
</g>
<g>
</g>
<g>
</g>
</svg>
