<?xml version="1.0" encoding="iso-8859-1"?>
<!-- Generator: Adobe Illustrator 19.0.0, SVG Export Plug-In . SVG Version: 6.00 Build 0)  -->
<svg version="1.1" id="Layer_1" xmlns="http://www.w3.org/2000/svg" xmlns:xlink="http://www.w3.org/1999/xlink" x="0px" y="0px"
	 viewBox="0 0 455 455" style="enable-background:new 0 0 455 455;" xml:space="preserve">
<g>
	<path d="M147.449,100.129C169.168,109.719,197.598,115,227.5,115s58.332-5.281,80.051-14.871c3.198-1.412,3.675-3.819,3.675-5.129
		s-0.478-3.717-3.675-5.129C285.832,80.281,257.402,75,227.5,75s-58.332,5.281-80.051,14.871c-3.198,1.412-3.675,3.819-3.675,5.129
		S144.251,98.717,147.449,100.129z"/>
	<path d="M357.5,290c0,24.813-20.187,45-45,45s-45-20.187-45-45v-72.271c-9.848,1.138-19.86,1.85-30,2.132V360
		c0,24.813-20.187,45-45,45s-45-20.187-45-45V210.542c-29.954-7.423-56.271-18.951-77.086-33.873
		c-6.618-4.745-12.594-9.789-17.914-15.096V345c0,60.751,78.35,110,175,110s175-49.249,175-110V161.567
		c-11.849,11.813-27.158,22.376-45,31.094V290z"/>
	<path d="M177.5,186.058V360c0,8.284,6.716,15,15,15c8.284,0,15-6.716,15-15V189.379c6.565,0.406,13.236,0.621,20,0.621
		c24.891,0,48.562-2.827,70-7.913V290c0,8.284,6.716,15,15,15c8.284,0,15-6.716,15-15V172.964c45.333-17.167,75-45.683,75-77.964
		c0-52.467-78.35-95-175-95s-175,42.533-175,95C52.5,138.034,105.216,174.379,177.5,186.058z M135.332,62.427
		C160.785,51.189,193.517,45,227.5,45s66.715,6.189,92.168,17.427c13.297,5.871,21.558,18.353,21.558,32.573
		s-8.261,26.702-21.558,32.573C294.215,138.811,261.483,145,227.5,145s-66.715-6.189-92.168-17.427
		c-13.297-5.871-21.558-18.353-21.558-32.573S122.034,68.298,135.332,62.427z"/>
</g>
<g>
</g>
<g>
</g>
<g>
</g>
<g>
</g>
<g>
</g>
<g>
</g>
<g>
</g>
<g>
</g>
<g>
</g>
<g>
</g>
<g>
</g>
<g>
</g>
<g>
</g>
<g>
</g>
<g>
</g>
</svg>
