<?xml version="1.0" encoding="iso-8859-1"?>
<!-- Generator: Adobe Illustrator 19.0.0, SVG Export Plug-In . SVG Version: 6.00 Build 0)  -->
<svg version="1.1" id="Layer_1" xmlns="http://www.w3.org/2000/svg" xmlns:xlink="http://www.w3.org/1999/xlink" x="0px" y="0px"
	 viewBox="0 0 455 455" style="enable-background:new 0 0 455 455;" xml:space="preserve">
<path d="M227.5,0C101.855,0,0,101.855,0,227.5S101.855,455,227.5,455H273c25.129,0,45.5-20.371,45.5-45.5
	c0-25.129-20.371-45.5-45.5-45.501c-25.129,0-45.5-20.371-45.5-45.5c0-25.129,20.371-45.5,45.5-45.5h136.5
	c25.129,0,45.5-20.371,45.5-45.5C455,101.855,353.145,0,227.5,0z M90,257.5c-16.569,0-30-13.431-30-30s13.431-30,30-30
	s30,13.431,30,30S106.569,257.5,90,257.5z M158.75,138.422c-16.569,0-30-13.432-30-30s13.431-30,30-30s30,13.432,30,30
	S175.319,138.422,158.75,138.422z M296.25,138.422c-16.569,0-30-13.432-30-30s13.431-30,30-30c16.569,0,30,13.432,30,30
	S312.819,138.422,296.25,138.422z"/>
<g>
</g>
<g>
</g>
<g>
</g>
<g>
</g>
<g>
</g>
<g>
</g>
<g>
</g>
<g>
</g>
<g>
</g>
<g>
</g>
<g>
</g>
<g>
</g>
<g>
</g>
<g>
</g>
<g>
</g>
</svg>
