<?xml version="1.0" encoding="iso-8859-1"?>
<!-- Generator: Adobe Illustrator 19.1.0, SVG Export Plug-In . SVG Version: 6.00 Build 0)  -->
<svg version="1.1" id="Capa_1" xmlns="http://www.w3.org/2000/svg" xmlns:xlink="http://www.w3.org/1999/xlink" x="0px" y="0px"
	 viewBox="0 0 446.54 446.54" style="enable-background:new 0 0 446.54 446.54;" xml:space="preserve">
<g>
	<polygon points="202.058,106.598 169.979,74.519 124.017,120.481 102.804,99.268 148.766,53.306 95.473,0.014 0.014,95.473 
		106.598,202.058 	"/>
	<polygon points="347.274,343.738 326.061,322.525 372.023,276.564 339.944,244.484 244.484,339.944 351.069,446.528 
		446.528,351.069 393.236,297.776 	"/>
	<path d="M351.08,0l95.458,95.458l-68.589,68.589l-95.458-95.458L351.08,0z"/>
	<path d="M0.002,446.54l117.522-33.799l-83.723-83.723L0.002,446.54z"/>
	<path d="M49.145,301.936l212.13-212.13l95.458,95.459l-212.13,212.13L49.145,301.936z"/>
</g>
<g>
</g>
<g>
</g>
<g>
</g>
<g>
</g>
<g>
</g>
<g>
</g>
<g>
</g>
<g>
</g>
<g>
</g>
<g>
</g>
<g>
</g>
<g>
</g>
<g>
</g>
<g>
</g>
<g>
</g>
</svg>
